<?xml version="1.0" encoding="UTF-8"?>
<svg version="1.1" width="1024" height="1024" viewBox="0 0 1024 1024" xmlns="http://www.w3.org/2000/svg">
  <g id="g2">
    <path
       fill="#ffffff"
       d="M 0,512 V 0 h 512 512 v 512 512 H 512 0 Z m 577.55011,211.06244 c 7.12244,-0.51565 20.82489,-1.41747 30.44989,-2.00404 52.75993,-3.21531 73.98104,-5.36499 86.23295,-8.73533 6.97638,-1.9191 9.07195,-3.89574 6.28817,-5.93128 C 699.47426,705.6263 697.57875,705 696.30887,705 c -3.89929,0 -2.56908,-1.75284 2.64431,-3.48445 5.09239,-1.69142 6.71624,-3.83104 5.59313,-7.36964 -0.71707,-2.25929 -2.30679,-11.00922 -8.02061,-44.14591 -2.41835,-14.025 -6.04669,-34.725 -8.06297,-46 l -3.66596,-20.5 -7.14838,-7.72986 C 673.71677,571.51872 645.75,542.90686 615.5,512.18823 c -48.11033,-48.85565 -56.06075,-57.36427 -63.46795,-67.924 -4.65738,-6.63957 -8.61956,-12.52675 -8.80485,-13.08262 -0.38193,-1.14579 1.65579,-1.36303 39.2728,-4.18682 14.85,-1.11474 28.17488,-2.2666 29.61085,-2.55969 C 615.60072,423.7228 634,405.01446 634,402.17826 c 0,-1.62982 -2.75128,-3.71819 -12.25,-9.29843 -13.9635,-8.20316 -32.08518,-19.0117 -32.5882,-19.43697 -0.18602,-0.15727 -1.37905,-5.10639 -2.6512,-10.99805 -1.96563,-9.10338 -2.74082,-11.06316 -5.1618,-13.04967 -1.56684,-1.28566 -6.99197,-5.61301 -12.05586,-9.61635 -9.00795,-7.12139 -9.20798,-7.37131 -9.25,-11.55723 -0.0593,-5.90418 2.51691,-30.1677 5.48584,-51.66807 2.63655,-19.09329 2.46244,-20.78178 -1.93616,-18.77764 -1.3539,0.61688 -17.1405,10.87028 -35.08132,22.78535 -17.94082,11.91506 -32.77586,21.50064 -32.96675,21.30128 -0.94722,-0.98926 -2.70095,-20.28075 -3.24193,-35.66199 -0.54033,-15.36289 -0.79391,-17.26599 -2.26521,-17 -2.7712,0.50098 -28.38933,30.44127 -54.58945,63.79951 -13.09105,16.66764 -12.39823,15.40211 -22.8294,41.70108 -16.74862,42.22648 -27.01293,70.82882 -26.18866,72.97683 0.27903,0.72715 1.19645,1.32209 2.03872,1.32209 2.66139,0 1.75341,4.6583 -3.8748,19.87939 -8.03218,21.72245 -16.85693,50.00646 -16.28484,52.19417 0.2761,1.05579 6.39453,12.88548 13.59651,26.2882 C 389.10747,540.76448 395,552.30559 395,553.00868 c 0,0.70308 6.97354,26.90909 15.49675,58.23557 8.52322,31.32648 15.26199,57.3371 14.97506,57.80136 -0.94074,1.52215 -32.27005,24.90843 -34.6497,25.86484 -1.27716,0.51331 -8.39711,1.44564 -15.82211,2.07184 -23.39117,1.97276 -40.54596,5.17974 -45.67128,8.53798 -2.51825,1.65002 -2.53182,1.72108 -0.68204,3.57085 5.68595,5.68595 44.51247,10.09125 113.85332,12.91792 48.39242,1.97271 115.15896,2.4935 135.05011,1.0534 z M 489.43522,662.33376 C 484.59674,653.07519 479.36943,643.3427 477.81899,640.70599 476.26854,638.06929 475,635.75821 475,635.57027 c 0,-0.46235 27.02253,-11.99946 45.5,-19.42596 15.15355,-6.09054 24.10116,-8.87649 25.14763,-7.83002 0.31405,0.31406 -4.35184,7.68432 -10.36867,16.37836 -6.01682,8.69404 -16.46435,24.13235 -23.21672,34.30735 -6.75237,10.175 -12.6264,18.87519 -13.0534,19.33376 -0.427,0.45857 -4.73513,-6.74143 -9.57362,-16 z M 426.99681,541.25 c -0.002,-0.4125 -0.66592,-4.575 -1.47591,-9.25 C 422.67148,515.55402 419,475.73385 419,461.27548 v -9.31613 l 4.25,2.15266 c 5.39125,2.7307 52.82779,29.84696 54.49585,31.15159 1.43891,1.1254 -0.78462,3.83313 -22.77652,27.7364 -7.84331,8.525 -16.96056,18.5375 -20.26054,22.25 -5.53362,6.22534 -7.70383,7.91379 -7.71198,6 z M 506,410.60699 c 0,-0.21616 0.675,-0.65203 1.5,-0.96862 0.825,-0.31658 1.5,-0.13972 1.5,0.39301 0,0.53274 -0.675,0.96862 -1.5,0.96862 -0.825,0 -1.5,-0.17686 -1.5,-0.39301 z" />
    <path
       fill="#c3a5ff"
       d="m 479,723.32357 c -41.0229,-0.99486 -98.67409,-4.30885 -120,-6.89803 -20.39946,-2.4767 -33.35604,-6.42241 -31.41301,-9.5663 2.15884,-3.49307 18.65725,-7.10319 42.91301,-9.39008 9.35,-0.88154 17.92669,-1.78476 19.05931,-2.00717 1.986,-0.38998 10.67602,-6.61364 28.33283,-20.29154 5.08907,-3.94226 9.41857,-6.53919 11,-6.59803 1.71673,-0.0639 8.01637,-4.28098 18.43572,-12.34122 8.70533,-6.7343 16.80533,-12.75412 18,-13.37738 1.19468,-0.62326 4.29036,-3.09534 6.8793,-5.49351 2.58894,-2.39817 5.28894,-4.34663 6,-4.3299 0.71106,0.0167 0.39284,0.53309 -0.70716,1.14748 -1.1,0.61439 -2.13297,1.22118 -2.2955,1.34842 -0.16252,0.12724 0.99352,2.42338 2.56899,5.10252 1.57546,2.67914 6.82325,12.44636 11.66173,21.70493 4.83849,9.25857 9.14662,16.45857 9.57362,16 0.427,-0.45857 6.30103,-9.15876 13.0534,-19.33376 6.75237,-10.175 17.21434,-25.63411 23.24882,-34.35358 8.56209,-12.37171 10.66619,-16.0471 9.58036,-16.73469 -1.05191,-0.66611 -0.86269,-0.88484 0.77547,-0.89642 2.14298,-0.0151 10.63214,8.03832 17.21473,16.33119 1.67926,2.11558 10.06905,11.65456 18.64396,21.19774 8.57491,9.54318 15.58002,17.69495 15.5669,18.11506 -0.0225,0.71892 -4.92001,1.57928 -44.59248,7.83361 -24.47017,3.85771 -23.18038,3.70416 -21.5,2.5595 0.825,-0.56198 2.29282,-1.02868 3.26182,-1.0371 1.49716,-0.013 1.67325,-0.65372 1.17225,-4.26531 -0.32427,-2.3375 -0.97323,-5.15 -1.44215,-6.25 -0.46892,-1.1 -1.39483,-3.8 -2.05757,-6 -0.66275,-2.2 -2.03257,-5.64696 -3.04404,-7.65991 l -1.83903,-3.6599 2.88846,-5.72642 C 535.3279,627.77168 531.3384,633.1882 505.23152,672 c -5.09002,7.56708 -6.70117,9 -10.11946,9 -1.37812,0 -11.52961,2.01629 -22.55887,4.48064 C 461.52394,687.945 445.075,691.5102 436,693.40332 c -9.075,1.89312 -25.02266,5.26668 -35.43924,7.49679 -10.41658,2.23011 -19.1216,3.87239 -19.34448,3.64951 -0.22288,-0.22289 1.48899,-1.60102 3.80415,-3.06252 2.41435,-1.52411 3.83522,-3.03145 3.33194,-3.53473 -0.90279,-0.90279 -31.31065,2.0471 -41.35237,4.01163 -8.20014,1.60424 -16.9815,4.19705 -17.5991,5.19634 -2.11015,3.4143 36.13687,9.83966 58.57066,9.83966 7.94264,0 9.14186,-0.48658 6.84934,-2.7791 -0.90546,-0.90546 0.42894,-1.04039 5.75,-0.5814 3.81101,0.32874 8.5041,0.94913 10.4291,1.37865 3.2709,0.72983 3.15249,0.78752 -1.80902,0.8814 -7.08481,0.13405 -5.79224,1.70748 2.04512,2.4895 10.32418,1.03015 39.92624,2.56827 61.7639,3.20923 11.275,0.33093 29.05,0.93266 39.5,1.33718 l 19,0.73547 -21,-0.0464 c -11.55,-0.0255 -25.725,-0.16095 -31.5,-0.301 z" />
    <path
       fill="#c3a5ff"
       d="m 500.8125,722.31689 c 0.72187,-0.28887 1.58438,-0.25335 1.91667,0.0789 0.33229,0.33229 -0.25834,0.56864 -1.3125,0.52522 -1.16495,-0.048 -1.4019,-0.28494 -0.60417,-0.60416 z m -34,-1 c 0.72187,-0.28887 1.58438,-0.25335 1.91667,0.0789 0.33229,0.33229 -0.25834,0.56864 -1.3125,0.52522 -1.16495,-0.048 -1.4019,-0.28494 -0.60417,-0.60416 z M 446.25,720.31067 c 0.9625,-0.25152 2.5375,-0.25152 3.5,0 0.9625,0.25153 0.175,0.45733 -1.75,0.45733 -1.925,0 -2.7125,-0.2058 -1.75,-0.45733 z" />
    <path
       fill="#c3a5ff"
       d="m 535.75,723.26779 c 2.3375,-0.21053 6.1625,-0.21053 8.5,0 2.3375,0.21054 0.425,0.3828 -4.25,0.3828 -4.675,0 -6.5875,-0.17226 -4.25,-0.3828 z" />
    <path
       fill="#c3a5ff"
       d="m 551.8125,722.31689 c 0.72187,-0.28887 1.58438,-0.25335 1.91667,0.0789 0.33229,0.33229 -0.25834,0.56864 -1.3125,0.52522 -1.16495,-0.048 -1.4019,-0.28494 -0.60417,-0.60416 z" />
    <path
       fill="#c3a5ff"
       d="m 527,722.39292 c -37.44109,-2.37368 -46.00232,-3.07812 -109.5,-9.00997 -20.9,-1.95245 -38.1875,-3.73734 -38.41667,-3.96643 -0.91399,-0.91368 1.00591,-1.4771 11.49037,-3.37199 6.00946,-1.08611 19.7013,-3.78185 30.4263,-5.99054 19.7174,-4.06056 24.92074,-4.80283 22,-3.13835 -0.825,0.47015 -3.04314,1.18494 -4.92921,1.58841 -1.88607,0.40347 -4.81107,2.18087 -6.5,3.94977 -1.68893,1.7689 -3.96704,3.70669 -5.06246,4.30618 -1.09542,0.5995 -1.69572,1.38595 -1.334,1.74766 0.36172,0.36172 9.13297,1.27029 19.49167,2.01904 10.3587,0.74876 31.659,2.29275 47.334,3.43109 15.675,1.13835 36.375,2.51797 46,3.06584 19.71612,1.12227 29.61275,1.85255 35.5761,2.62517 2.24186,0.29046 12.14186,-0.18551 22,-1.05771 9.85815,-0.87219 25.5739,-2.24682 34.9239,-3.05473 9.35,-0.80791 18.77602,-1.72857 20.94672,-2.04592 3.81664,-0.55797 29.98328,-8.44781 41.87822,-12.62724 3.20371,-1.12566 6.03542,-1.83617 6.29267,-1.57892 0.56558,0.56558 -15.51453,6.28722 -32.61761,11.60603 -10.04585,3.12411 -15.24864,4.11813 -26.5,5.06296 -7.7,0.6466 -20.525,1.80703 -28.5,2.57872 -30.8689,2.98702 -70.43589,4.78426 -85,3.86093 z" />
    <path
       fill="#7c54cd"
       d="m 567.5,717.69016 c -2.2,-1.25717 -16.15,-8.49878 -31,-16.09249 -14.85,-7.5937 -27.45,-14.27376 -28,-14.84459 -0.55,-0.57083 11.375,5.29836 26.5,13.04264 30.74141,15.74017 38.96676,20.16522 37.5,20.17412 -0.55,0.003 -2.8,-1.02252 -5,-2.27968 z" />
    <path
       fill="#7c54cd"
       d="m 600,661.049 c -1.35258,-1.69196 -15.64432,-17.82906 -37.5,-42.342 -12.33967,-13.83996 -12.02715,-13.33881 -9.29157,-14.89957 3.13833,-1.79054 43.44071,-1.35164 66.79157,0.72737 26.70077,2.37726 42.243,4.3082 43.31635,5.38155 1.00763,1.00763 -0.65977,2.66136 -9.39973,9.32274 -7.46769,5.69168 -30.50691,25.20705 -47.78156,40.47336 -4.26678,3.77073 -4.20066,3.75633 -6.13506,1.33655 z" />
    <path
       fill="#7c54cd"
       d="M 606,660.01873 c 7.47573,-6.93045 22.7453,-20.05939 36.5,-31.3831 19.08732,-15.71384 20.9626,-17.19315 20.17044,-15.9114 -0.39598,0.6407 -7.9281,7.15235 -16.73804,14.47034 -8.80995,7.31799 -20.0061,16.68043 -24.88034,20.80543 -4.87423,4.125 -11.26746,9.45536 -14.20715,11.84525 L 601.5,664.1905 Z" />
    <path
       fill="#7c54cd"
       d="M 606,661.00928 c 1.925,-1.76084 8.62026,-7.54577 14.87835,-12.8554 30.10997,-25.54657 43.12697,-36.24702 43.07398,-35.40837 -0.0262,0.41497 -7.32086,6.82949 -16.21032,14.25449 -8.88945,7.425 -21.74749,18.225 -28.5734,24 C 606.92248,661.36072 599.19299,667.2358 606,661.00928 Z" />
    <path
       fill="#1a1b26"
       d="m 572.48544,719.14664 c -0.98163,-0.92067 -23.32057,-12.48077 -54.25402,-28.07575 -8.94772,-4.51096 -16.04739,-8.55964 -15.77704,-8.99708 0.27035,-0.43743 5.56621,-1.5722 11.76858,-2.52171 6.20237,-0.9495 18.25204,-2.83025 26.77704,-4.17943 8.525,-1.34918 21.35,-3.31885 28.5,-4.37704 7.15,-1.05819 17.1836,-2.7862 22.29688,-3.84002 10.54589,-2.17345 11.479,-1.51597 1.37822,0.97111 -5.86672,1.44453 -6.22327,1.65749 -2.94415,1.75843 6.61408,0.2036 6.15153,2.43033 -5.24473,25.24818 -5.59462,11.20167 -10.47428,21.39512 -10.84369,22.65211 -0.42511,1.44652 -1.03338,1.94618 -1.65709,1.3612 z" />
    <path
       fill="#1a1b26"
       d="m 585.17943,697.75 c 6.07542,-12.2375 12.11901,-24.66524 13.43019,-27.61719 2.04668,-4.60781 2.70277,-5.29423 4.63718,-4.85156 4.43042,1.01387 96.72172,32.22882 96.7375,32.71875 0.009,0.275 -2.34649,0.52939 -5.2341,0.56531 -2.88761,0.0359 -14.9252,1.72705 -26.7502,3.75806 -11.825,2.03102 -28.925,4.83974 -38,6.2416 -16.5575,2.55774 -36.73287,6.24948 -47,8.6002 l -5.5,1.25925 4,0.64588 c 3.77856,0.61013 3.68536,0.65375 -1.68339,0.78779 L 574.13321,720 Z" />
    <path
       fill="#1a1b26"
       d="m 579.5,718.16409 c 2.72565,-1.20604 31.4652,-6.66099 51,-9.68012 8.8,-1.36005 25.675,-4.10732 37.5,-6.10503 35.22731,-5.95129 38.19562,-5.63994 15.5,1.62582 -7.15,2.289 -16.375,5.27077 -20.5,6.62616 -5.18837,1.7048 -12.43148,2.91369 -23.5,3.9222 -8.8,0.80182 -20.275,1.92659 -25.5,2.4995 -13.22405,1.44998 -36.99585,2.21583 -34.5,1.11147 z" />
    <path
       fill="#1a1b26"
       d="m 433.15871,654.75 c -0.57562,-3.4375 -2.69137,-18.175 -4.70165,-32.75 -2.40821,-17.4601 -4.30198,-27.86451 -5.55147,-30.5 -1.29348,-2.72826 -3.94482,-5.43071 -8.33923,-8.5 -3.54355,-2.475 -7.03311,-4.5 -7.75459,-4.5 -1.42377,0 -8.13268,-18.65662 -7.61719,-21.18243 0.20106,-0.98516 3.56466,1.52386 9.84398,7.34297 5.24621,4.8617 14.98092,13.64647 21.63269,19.52171 10.05074,8.87741 12.17138,11.2428 12.5514,14 0.25151,1.82476 3.05045,12.76775 6.21986,24.31775 3.16942,11.55 5.82893,21.49299 5.91003,22.09553 C 455.47403,645.49809 435.85987,661 434.59641,661 c -0.21511,0 -0.86207,-2.8125 -1.4377,-6.25 z" />
    <path
       fill="#1a1b26"
       d="m 396,429 c 0.825,-0.53316 3.075,-0.92302 5,-0.86637 l 3.5,0.103 -3,0.76337 c -1.65,0.41985 -3.9,0.80972 -5,0.86637 -1.6456,0.0847 -1.7342,-0.0688 -0.5,-0.86637 z M 390,425.01174 c 0,-2.08272 13.90309,-39.93654 21.30676,-58.01174 1.9149,-4.675 5.55424,-13.55737 8.08744,-19.7386 2.53319,-6.18123 4.6058,-11.91873 4.6058,-12.75 0,-0.83127 0.1125,-1.50496 0.25,-1.49709 0.1375,0.008 11.26752,5.63286 24.73337,12.5 13.46585,6.86713 25.05898,12.48569 25.7625,12.48569 2.06773,0 31.86307,15.26229 30.63195,15.69084 -0.6172,0.21484 -7.8172,-2.90873 -16,-6.94127 -8.1828,-4.03253 -17.12782,-8.32403 -19.87782,-9.53666 -2.75,-1.21264 -9.275,-4.48674 -14.5,-7.27579 -5.225,-2.78905 -11.1764,-5.692 -13.22534,-6.451 -3.54534,-1.31332 -3.66934,-1.29034 -2.56637,0.47579 0.97311,1.5582 0.63396,2.45373 -2.11494,5.58455 -3.46134,3.94225 -3.50518,4.60138 -0.79068,11.88682 1.0884,2.92116 1.2054,4.67944 0.45466,6.83299 -0.92611,2.65664 -0.65102,3.26635 3.28157,7.27336 2.36082,2.40551 4.66786,4.1416 5.12675,3.85799 0.45889,-0.28361 0.83435,0.3567 0.83435,1.4229 0,2.42228 8.08062,9.17948 10.97731,9.17948 1.31037,0 1.87536,0.42936 1.4566,1.10693 -0.47545,0.76931 0.34533,0.91186 2.69098,0.46737 3.33071,-0.63115 3.34222,-0.62095 0.87511,0.77467 -2.58015,1.45957 -35.41821,16.81454 -58.75,27.47129 -7.2875,3.32856 -13.25,5.66472 -13.25,5.19148 z" />
  </g>
</svg>
